<svg xmlns="http://www.w3.org/2000/svg" viewBox="0 0 400 400"><rect width="400" height="400" fill="#0f172a"/><g><rect x="20" y="40" width="70" height="22" fill="#ef4444"/><rect x="95" y="40" width="70" height="22" fill="#ef4444"/><rect x="170" y="40" width="70" height="22" fill="#f59e0b"/><rect x="245" y="40" width="70" height="22" fill="#f59e0b"/><rect x="320" y="40" width="60" height="22" fill="#facc15"/><rect x="20" y="70" width="70" height="22" fill="#facc15"/><rect x="95" y="70" width="70" height="22" fill="#22c55e"/><rect x="170" y="70" width="70" height="22" fill="#22c55e"/><rect x="245" y="70" width="70" height="22" fill="#3b82f6"/><rect x="320" y="70" width="60" height="22" fill="#3b82f6"/><rect x="20" y="100" width="70" height="22" fill="#8b5cf6"/><rect x="95" y="100" width="70" height="22" fill="#8b5cf6"/><rect x="170" y="100" width="70" height="22" fill="#ec4899"/><rect x="245" y="100" width="70" height="22" fill="#ec4899"/><rect x="320" y="100" width="60" height="22" fill="#ef4444"/></g><circle cx="200" cy="260" r="12" fill="#fff"/><rect x="150" y="340" width="100" height="14" rx="7" fill="#fff"/></svg>
