<svg xmlns="http://www.w3.org/2000/svg" viewBox="0 0 400 400"><rect width="400" height="400" fill="#0b1224"/><g transform="translate(200,260)"><path d="M0 0 L0 -120 A120 120 0 0 1 113 -42 Z" fill="#ff6b35"/><path d="M0 0 L113 -42 A120 120 0 0 1 113 42 Z" fill="#ffb627"/><path d="M0 0 L113 42 A120 120 0 0 1 0 120 Z" fill="#22c55e"/><path d="M0 0 L0 120 A120 120 0 0 1 -113 42 Z" fill="#3b82f6"/><path d="M0 0 L-113 42 A120 120 0 0 1 -113 -42 Z" fill="#a855f7"/><path d="M0 0 L-113 -42 A120 120 0 0 1 0 -120 Z" fill="#ec4899"/><circle cx="0" cy="0" r="22" fill="#0b1224"/></g><circle cx="200" cy="80" r="22" fill="#ff6b35" stroke="#fff" stroke-width="3"/></svg>
