<svg xmlns="http://www.w3.org/2000/svg" viewBox="0 0 400 400"><rect width="400" height="400" fill="#1e3a8a" rx="14"/><g><circle cx="60" cy="60" r="25" fill="#020617"/><circle cx="120" cy="60" r="25" fill="#020617"/><circle cx="180" cy="60" r="25" fill="#020617"/><circle cx="240" cy="60" r="25" fill="#020617"/><circle cx="300" cy="60" r="25" fill="#ffb627"/><circle cx="360" cy="60" r="25" fill="#020617"/><circle cx="60" cy="120" r="25" fill="#020617"/><circle cx="120" cy="120" r="25" fill="#020617"/><circle cx="180" cy="120" r="25" fill="#ff6b35"/><circle cx="240" cy="120" r="25" fill="#ffb627"/><circle cx="300" cy="120" r="25" fill="#ffb627"/><circle cx="360" cy="120" r="25" fill="#020617"/><circle cx="60" cy="180" r="25" fill="#020617"/><circle cx="120" cy="180" r="25" fill="#ff6b35"/><circle cx="180" cy="180" r="25" fill="#ffb627"/><circle cx="240" cy="180" r="25" fill="#ff6b35"/><circle cx="300" cy="180" r="25" fill="#ff6b35"/><circle cx="360" cy="180" r="25" fill="#020617"/><circle cx="60" cy="240" r="25" fill="#ffb627"/><circle cx="120" cy="240" r="25" fill="#ff6b35"/><circle cx="180" cy="240" r="25" fill="#ff6b35"/><circle cx="240" cy="240" r="25" fill="#ffb627"/><circle cx="300" cy="240" r="25" fill="#ff6b35"/><circle cx="360" cy="240" r="25" fill="#ffb627"/><circle cx="60" cy="300" r="25" fill="#ff6b35"/><circle cx="120" cy="300" r="25" fill="#ffb627"/><circle cx="180" cy="300" r="25" fill="#ffb627"/><circle cx="240" cy="300" r="25" fill="#ff6b35"/><circle cx="300" cy="300" r="25" fill="#ffb627"/><circle cx="360" cy="300" r="25" fill="#ff6b35"/><circle cx="60" cy="360" r="25" fill="#ff6b35"/><circle cx="120" cy="360" r="25" fill="#ffb627"/><circle cx="180" cy="360" r="25" fill="#ff6b35"/><circle cx="240" cy="360" r="25" fill="#ffb627"/><circle cx="300" cy="360" r="25" fill="#ff6b35"/><circle cx="360" cy="360" r="25" fill="#ffb627"/></g></svg>
