<svg xmlns="http://www.w3.org/2000/svg" viewBox="0 0 400 400"><rect width="400" height="400" fill="#0b1224"/><g><rect x="40" y="40" width="80" height="80" rx="14" fill="#ff6b35"/><rect x="130" y="40" width="80" height="80" rx="14" fill="#22c55e"/><rect x="220" y="40" width="80" height="80" rx="14" fill="#3b82f6"/><rect x="310" y="40" width="60" height="80" rx="14" fill="#a855f7"/><rect x="40" y="130" width="80" height="80" rx="14" fill="#22c55e"/><rect x="130" y="130" width="80" height="80" rx="14" fill="#ffb627"/><rect x="220" y="130" width="80" height="80" rx="14" fill="#22c55e"/><rect x="310" y="130" width="60" height="80" rx="14" fill="#ff6b35"/><rect x="40" y="220" width="80" height="80" rx="14" fill="#ff6b35"/><rect x="130" y="220" width="80" height="80" rx="14" fill="#ff6b35"/><rect x="220" y="220" width="80" height="80" rx="14" fill="#ff6b35"/><rect x="310" y="220" width="60" height="80" rx="14" fill="#3b82f6"/><rect x="40" y="310" width="80" height="60" rx="14" fill="#a855f7"/><rect x="130" y="310" width="80" height="60" rx="14" fill="#ffb627"/><rect x="220" y="310" width="80" height="60" rx="14" fill="#22c55e"/><rect x="310" y="310" width="60" height="60" rx="14" fill="#ec4899"/></g><g stroke="#fff" stroke-width="6" fill="none" stroke-dasharray="6 6"><rect x="36" y="216" width="268" height="92" rx="18"/></g></svg>
