<svg xmlns="http://www.w3.org/2000/svg" viewBox="0 0 400 400"><defs><linearGradient id="bg" x1="0" y1="0" x2="0" y2="1"><stop offset="0" stop-color="#0b1224"/><stop offset="1" stop-color="#020617"/></linearGradient></defs><rect width="400" height="400" fill="url(#bg)"/><g><polygon points="20,260 100,220 180,260 100,300" fill="#a855f7"/><polygon points="100,300 180,260 180,290 100,330" fill="#581c87"/><polygon points="20,260 100,220 100,250 20,290" fill="#7c3aed"/><polygon points="180,260 260,220 340,260 260,300" fill="#3b82f6"/><polygon points="260,300 340,260 340,290 260,330" fill="#1e3a8a"/><polygon points="180,260 260,220 260,250 180,290" fill="#2563eb"/><polygon points="120,180 200,140 280,180 200,220" fill="#22c55e"/><polygon points="200,220 280,180 280,210 200,250" fill="#14532d"/><polygon points="120,180 200,140 200,170 120,210" fill="#16a34a"/></g><g transform="translate(200,140)"><circle r="22" fill="#ffe27a" stroke="#ff6b35" stroke-width="3"/><circle r="6" cx="-6" cy="-6" fill="#fff" opacity=".6"/></g><g><polygon points="60,165 75,150 90,165 75,180" fill="#ffb627" stroke="#fff" stroke-width="2"/><polygon points="320,165 335,150 350,165 335,180" fill="#ffb627" stroke="#fff" stroke-width="2"/></g></svg>
