<svg xmlns="http://www.w3.org/2000/svg" viewBox="0 0 400 400"><rect width="400" height="400" fill="#0b1224"/><defs><radialGradient id="on"><stop offset="0" stop-color="#ffe27a"/><stop offset="0.5" stop-color="#ffb627"/><stop offset="1" stop-color="#ff6b35"/></radialGradient></defs><g><rect x="40" y="40" width="56" height="56" rx="12" fill="rgba(15,23,42,.6)" stroke="#1e293b"/><rect x="106" y="40" width="56" height="56" rx="12" fill="url(#on)"/><rect x="172" y="40" width="56" height="56" rx="12" fill="rgba(15,23,42,.6)" stroke="#1e293b"/><rect x="238" y="40" width="56" height="56" rx="12" fill="url(#on)"/><rect x="304" y="40" width="56" height="56" rx="12" fill="rgba(15,23,42,.6)" stroke="#1e293b"/><rect x="40" y="106" width="56" height="56" rx="12" fill="url(#on)"/><rect x="106" y="106" width="56" height="56" rx="12" fill="rgba(15,23,42,.6)" stroke="#1e293b"/><rect x="172" y="106" width="56" height="56" rx="12" fill="url(#on)"/><rect x="238" y="106" width="56" height="56" rx="12" fill="url(#on)"/><rect x="304" y="106" width="56" height="56" rx="12" fill="rgba(15,23,42,.6)" stroke="#1e293b"/><rect x="40" y="172" width="56" height="56" rx="12" fill="rgba(15,23,42,.6)" stroke="#1e293b"/><rect x="106" y="172" width="56" height="56" rx="12" fill="url(#on)"/><rect x="172" y="172" width="56" height="56" rx="12" fill="rgba(15,23,42,.6)" stroke="#1e293b"/><rect x="238" y="172" width="56" height="56" rx="12" fill="rgba(15,23,42,.6)" stroke="#1e293b"/><rect x="304" y="172" width="56" height="56" rx="12" fill="url(#on)"/><rect x="40" y="238" width="56" height="56" rx="12" fill="url(#on)"/><rect x="106" y="238" width="56" height="56" rx="12" fill="rgba(15,23,42,.6)" stroke="#1e293b"/><rect x="172" y="238" width="56" height="56" rx="12" fill="url(#on)"/><rect x="238" y="238" width="56" height="56" rx="12" fill="rgba(15,23,42,.6)" stroke="#1e293b"/><rect x="304" y="238" width="56" height="56" rx="12" fill="rgba(15,23,42,.6)" stroke="#1e293b"/><rect x="40" y="304" width="56" height="56" rx="12" fill="rgba(15,23,42,.6)" stroke="#1e293b"/><rect x="106" y="304" width="56" height="56" rx="12" fill="url(#on)"/><rect x="172" y="304" width="56" height="56" rx="12" fill="rgba(15,23,42,.6)" stroke="#1e293b"/><rect x="238" y="304" width="56" height="56" rx="12" fill="url(#on)"/><rect x="304" y="304" width="56" height="56" rx="12" fill="rgba(15,23,42,.6)" stroke="#1e293b"/></g></svg>
