<svg xmlns="http://www.w3.org/2000/svg" viewBox="0 0 400 400"><rect width="400" height="400" fill="#000"/><g stroke="#1d4ed8" stroke-width="4" fill="none"><rect x="30" y="30" width="340" height="340" rx="14"/><line x1="100" y1="30" x2="100" y2="160"/><line x1="200" y1="60" x2="200" y2="200"/><line x1="300" y1="30" x2="300" y2="140"/><line x1="60" y1="200" x2="180" y2="200"/><line x1="240" y1="240" x2="370" y2="240"/><line x1="120" y1="300" x2="300" y2="300"/></g><g fill="#facc15"><circle cx="80" cy="100" r="4"/><circle cx="130" cy="100" r="4"/><circle cx="180" cy="100" r="4"/><circle cx="240" cy="100" r="4"/><circle cx="290" cy="100" r="4"/><circle cx="80" cy="160" r="4"/><circle cx="80" cy="260" r="4"/><circle cx="280" cy="260" r="4"/><circle cx="350" cy="260" r="4"/><circle cx="60" cy="350" r="4"/><circle cx="110" cy="350" r="4"/><circle cx="350" cy="350" r="4"/></g><path d="M 200 260 m -40 0 a 40 40 0 1 1 70 -23 L 200 260 Z" fill="#ffb627"/><circle cx="195" cy="245" r="4" fill="#000"/><circle cx="320" cy="180" r="20" fill="#ec4899"/><path d="M 300 200 L 305 190 L 312 200 L 320 190 L 328 200 L 335 190 L 340 200 Z" fill="#ec4899"/></svg>
