<svg xmlns="http://www.w3.org/2000/svg" viewBox="0 0 400 400"><rect width="400" height="400" fill="#1f2937"/><g stroke="#374151" stroke-width="2"><rect x="40" y="40" width="80" height="80" fill="#475569"/><rect x="120" y="40" width="80" height="80" fill="#475569"/><rect x="200" y="40" width="80" height="80" fill="#94a3b8"/><rect x="280" y="40" width="80" height="80" fill="#475569"/><rect x="40" y="120" width="80" height="80" fill="#94a3b8"/><rect x="120" y="120" width="80" height="80" fill="#475569"/><rect x="200" y="120" width="80" height="80" fill="#475569"/><rect x="280" y="120" width="80" height="80" fill="#94a3b8"/><rect x="40" y="200" width="80" height="80" fill="#475569"/><rect x="120" y="200" width="80" height="80" fill="#94a3b8"/><rect x="200" y="200" width="80" height="80" fill="#475569"/><rect x="280" y="200" width="80" height="80" fill="#475569"/><rect x="40" y="280" width="80" height="80" fill="#94a3b8"/><rect x="120" y="280" width="80" height="80" fill="#475569"/><rect x="200" y="280" width="80" height="80" fill="#94a3b8"/><rect x="280" y="280" width="80" height="80" fill="#475569"/></g><g fill="#fff" font-family="system-ui" font-weight="700" text-anchor="middle"><text x="240" y="95" font-size="50" fill="#3b82f6">1</text><text x="80" y="175" font-size="50" fill="#22c55e">2</text><text x="320" y="175" font-size="50" fill="#ef4444">3</text></g><circle cx="160" cy="320" r="22" fill="#000"/><rect x="156" y="290" width="8" height="20" fill="#000"/></svg>
