<svg xmlns="http://www.w3.org/2000/svg" viewBox="0 0 400 400"><rect width="400" height="400" fill="#16a34a"/><g stroke="#15803d" stroke-width="2" fill="none"><line x1="50" y1="50" x2="350" y2="50"/><line x1="50" y1="100" x2="350" y2="100"/><line x1="50" y1="150" x2="350" y2="150"/><line x1="50" y1="200" x2="350" y2="200"/><line x1="50" y1="250" x2="350" y2="250"/><line x1="50" y1="300" x2="350" y2="300"/><line x1="50" y1="350" x2="350" y2="350"/><line x1="50" y1="50" x2="50" y2="350"/><line x1="100" y1="50" x2="100" y2="350"/><line x1="150" y1="50" x2="150" y2="350"/><line x1="200" y1="50" x2="200" y2="350"/><line x1="250" y1="50" x2="250" y2="350"/><line x1="300" y1="50" x2="300" y2="350"/><line x1="350" y1="50" x2="350" y2="350"/></g><g><circle cx="125" cy="125" r="20" fill="#0f172a"/><circle cx="175" cy="125" r="20" fill="#0f172a"/><circle cx="225" cy="125" r="20" fill="#facc15"/><circle cx="125" cy="175" r="20" fill="#0f172a"/><circle cx="175" cy="175" r="20" fill="#0f172a"/><circle cx="225" cy="175" r="20" fill="#0f172a"/><circle cx="275" cy="175" r="20" fill="#facc15"/><circle cx="175" cy="225" r="20" fill="#facc15"/><circle cx="225" cy="225" r="20" fill="#0f172a"/><circle cx="275" cy="225" r="20" fill="#facc15"/><circle cx="175" cy="275" r="20" fill="#facc15"/><circle cx="225" cy="275" r="20" fill="#facc15"/></g></svg>
