<svg xmlns="http://www.w3.org/2000/svg" viewBox="0 0 400 400"><defs><linearGradient id="sky" x1="0" y1="0" x2="0" y2="1"><stop offset="0" stop-color="#0b1224"/><stop offset="0.55" stop-color="#1e1b4b"/><stop offset="1" stop-color="#7c2d12"/></linearGradient></defs><rect width="400" height="400" fill="url(#sky)"/><g fill="#fff" opacity="0.7"><circle cx="50" cy="50" r="1.5"/><circle cx="120" cy="80" r="1"/><circle cx="220" cy="40" r="1.5"/><circle cx="320" cy="70" r="1"/><circle cx="80" cy="140" r="1"/><circle cx="350" cy="160" r="1.5"/></g><g><polygon points="100,350 300,350 340,330 140,330" fill="#ff6b35"/><polygon points="300,350 340,330 340,310 300,330" fill="#9a3412"/><polygon points="100,350 140,330 140,310 100,330" fill="#9a3412"/><polygon points="110,320 290,320 326,300 146,300" fill="#fb923c"/><polygon points="290,320 326,300 326,280 290,300" fill="#7c2d12"/><polygon points="120,290 280,290 312,270 152,270" fill="#facc15"/><polygon points="280,290 312,270 312,250 280,270" fill="#854d0e"/><polygon points="130,260 270,260 298,240 158,240" fill="#22c55e"/><polygon points="270,260 298,240 298,220 270,240" fill="#14532d"/><polygon points="142,230 258,230 282,210 166,210" fill="#3b82f6"/><polygon points="258,230 282,210 282,190 258,210" fill="#1e3a8a"/><polygon points="156,200 244,200 264,180 176,180" fill="#a855f7"/><polygon points="244,200 264,180 264,160 244,180" fill="#581c87"/><polygon points="170,170 230,170 246,150 186,150" fill="#ec4899"/><polygon points="230,170 246,150 246,130 230,150" fill="#831843"/><polygon points="186,140 214,140 226,120 198,120" fill="#06b6d4"/><polygon points="214,140 226,120 226,100 214,120" fill="#155e75"/></g></svg>
