<svg xmlns="http://www.w3.org/2000/svg" viewBox="0 0 400 400"><rect width="400" height="400" fill="#0b1224"/><defs><linearGradient id="t" x1="0" y1="0" x2="1" y2="1"><stop offset="0" stop-color="#ff6b35"/><stop offset="1" stop-color="#ffb627"/></linearGradient></defs><g><rect x="40" y="40" width="80" height="80" rx="10" fill="url(#t)"/><rect x="130" y="40" width="80" height="80" rx="10" fill="url(#t)"/><rect x="220" y="40" width="80" height="80" rx="10" fill="url(#t)"/><rect x="310" y="40" width="50" height="80" rx="10" fill="url(#t)"/><rect x="40" y="130" width="80" height="80" rx="10" fill="url(#t)"/><rect x="130" y="130" width="80" height="80" rx="10" fill="url(#t)"/><rect x="40" y="220" width="80" height="80" rx="10" fill="url(#t)"/><rect x="220" y="220" width="80" height="80" rx="10" fill="url(#t)"/><rect x="310" y="220" width="50" height="80" rx="10" fill="url(#t)"/><rect x="130" y="310" width="80" height="50" rx="10" fill="url(#t)"/></g><g fill="#fff" font-family="system-ui" font-weight="800" font-size="30" text-anchor="middle"><text x="80" y="92">1</text><text x="170" y="92">2</text><text x="260" y="92">3</text><text x="80" y="182">5</text><text x="170" y="182">6</text><text x="80" y="272">9</text><text x="260" y="272">7</text></g></svg>
