<svg xmlns="http://www.w3.org/2000/svg" viewBox="0 0 400 400"><defs><radialGradient id="bg" cx="0.5" cy="0.5" r="0.6"><stop offset="0" stop-color="#1a1240"/><stop offset="1" stop-color="#020617"/></radialGradient><linearGradient id="ship" x1="0" y1="0" x2="1" y2="0"><stop offset="0" stop-color="#9a3412"/><stop offset="1" stop-color="#ffb627"/></linearGradient></defs><rect width="400" height="400" fill="url(#bg)"/><g fill="#fff" opacity="0.7"><circle cx="40" cy="50" r="1.5"/><circle cx="120" cy="80" r="1"/><circle cx="220" cy="60" r="1.5"/><circle cx="320" cy="50" r="1"/><circle cx="80" cy="140" r="1"/><circle cx="350" cy="160" r="1.5"/><circle cx="60" cy="300" r="1"/><circle cx="200" cy="340" r="1"/><circle cx="300" cy="280" r="1.5"/><circle cx="380" cy="350" r="1"/></g><g><path d="M50,120 L60,110 L70,120 L60,130 Z" fill="#ef4444" stroke="#fff" stroke-width="1.5"/><path d="M310,90 L325,75 L340,90 L325,105 Z" fill="#fb923c" stroke="#fff" stroke-width="1.5"/><path d="M320,260 L335,245 L350,260 L335,275 Z" fill="#a855f7" stroke="#fff" stroke-width="1.5"/><path d="M60,300 L75,285 L90,300 L75,315 Z" fill="#ef4444" stroke="#fff" stroke-width="1.5"/></g><g><circle cx="160" cy="160" r="4" fill="#ffe27a"/><circle cx="270" cy="220" r="4" fill="#ffe27a"/><circle cx="130" cy="245" r="4" fill="#ffe27a"/></g><g transform="translate(200,200)"><polygon points="22,0 -18,-14 -10,0 -18,14" fill="url(#ship)" stroke="#fff" stroke-width="1.5"/><circle cx="2" cy="0" r="4" fill="#ffe27a"/></g><g fill="#ff6b35" opacity=".4"><circle cx="200" cy="200" r="60"/></g></svg>
