<svg xmlns="http://www.w3.org/2000/svg" viewBox="0 0 400 400"><rect width="400" height="400" fill="#0b1224"/><g stroke="#475569" stroke-width="1" fill="none"><rect x="40" y="40" width="320" height="320" stroke-width="3"/><line x1="40" y1="146" x2="360" y2="146" stroke-width="3"/><line x1="40" y1="253" x2="360" y2="253" stroke-width="3"/><line x1="146" y1="40" x2="146" y2="360" stroke-width="3"/><line x1="253" y1="40" x2="253" y2="360" stroke-width="3"/><g><line x1="40" y1="76" x2="360" y2="76"/><line x1="40" y1="111" x2="360" y2="111"/><line x1="40" y1="182" x2="360" y2="182"/><line x1="40" y1="217" x2="360" y2="217"/><line x1="40" y1="289" x2="360" y2="289"/><line x1="40" y1="325" x2="360" y2="325"/><line x1="76" y1="40" x2="76" y2="360"/><line x1="111" y1="40" x2="111" y2="360"/><line x1="182" y1="40" x2="182" y2="360"/><line x1="217" y1="40" x2="217" y2="360"/><line x1="289" y1="40" x2="289" y2="360"/><line x1="325" y1="40" x2="325" y2="360"/></g></g><g font-family="system-ui" font-weight="700" font-size="22" text-anchor="middle"><text x="58" y="68" fill="#f1f5f9">5</text><text x="129" y="68" fill="#f1f5f9">3</text><text x="200" y="68" fill="#ffb627">7</text><text x="93" y="103" fill="#ffb627">6</text><text x="200" y="103" fill="#f1f5f9">1</text><text x="270" y="103" fill="#f1f5f9">9</text><text x="307" y="138" fill="#ffb627">5</text><text x="58" y="174" fill="#f1f5f9">8</text><text x="200" y="245" fill="#ffb627">3</text><text x="270" y="280" fill="#f1f5f9">7</text><text x="129" y="315" fill="#ffb627">2</text><text x="307" y="350" fill="#f1f5f9">1</text></g></svg>
